inDegrees=yes
name=ik_S48_A02_T02
DataType=double
version=3
OpenSimVersion=4.3-2021-08-27-4bc7ad9
endheader
time	pelvis_tilt	pelvis_list	pelvis_rotation	pelvis_tx	pelvis_ty	pelvis_tz	hip_flexion_r	hip_adduction_r	hip_rotation_r	knee_angle_r	knee_angle_r_beta	ankle_angle_r	subtalar_angle_r	mtp_angle_r	hip_flexion_l	hip_adduction_l	hip_rotation_l	knee_angle_l	knee_angle_l_beta	ankle_angle_l	subtalar_angle_l	mtp_angle_l	lumbar_extension	lumbar_bending	lumbar_rotation	arm_flex_r	arm_add_r	arm_rot_r	elbow_flex_r	pro_sup_r	wrist_flex_r	wrist_dev_r	arm_flex_l	arm_add_l	arm_rot_l	elbow_flex_l	pro_sup_l	wrist_flex_l	wrist_dev_l
31.55999999999942	0.2971670251157665	-1.832273215359163	-71.70651163728522	0	0.9399999999999999	0	-6.96510182448573	-2.227546140056752	-0.5705486930721091	-3.641838015269558	-0.06356206419074932	0	0	0	1.465501512125322	-5.407828805732321	-7.199208901028245	10.46631476789239	0.1826716532498283	0	0	0	0	0	0	36.49102947388398	-36.49102947388398	4.737097444445814	81.39075240263618	85.26290281854669	0	0	36.49102947388398	-36.49102947388398	4.737097444445814	81.39075240263618	85.26290281849838	0	0
31.57999999999942	0.17256991433237	-2.024692553905629	-72.60746803085449	0	0.9399999999999999	0	-6.856685365769706	-2.358217317193929	-0.08888278275064777	-3.524378616621656	-0.06151201094693084	0	0	0	1.156879778432706	-5.368561961774153	-7.737044824320561	10.28284247406382	0.1794694576363333	0	0	0	0	0	0	36.49173658824171	-36.49173658824171	4.737141128319788	81.39135296252314	85.26285913467478	0	0	36.49173658824171	-36.49173658824171	4.737141128319788	81.39135296252314	85.26285913462647	0	0
31.59999999999942	0.1182948946170843	-2.026487497499832	-73.08019756939302	0	0.9399999999999999	0	-6.591951888027078	-2.562799007361041	-0.03796153755420122	-3.31691451995869	-0.0578910793804863	0	0	0	1.012250753874889	-5.15739445847436	-7.820684218922495	9.768219492526661	0.1704875922020799	0	0	0	0	0	0	36.49351827311077	-36.49351827311077	4.737251638971719	81.39287227225407	85.26274862402808	0	0	36.49351827311077	-36.49351827311077	4.737251638971719	81.39287227225407	85.26274862397976	0	0
31.61999999999941	0.1059326295201944	-1.980073945473541	-73.31978977890925	0	0.9399999999999999	0	-6.299879850453444	-2.767465383249682	-0.1892917773321487	-3.156310834070045	-0.05508801627089069	0	0	0	0.9587303325558334	-4.928304091617346	-7.632153001448229	9.367290987096027	0.1634900697172153	0	0	0	0	0	0	36.49511504801134	-36.49511504801134	4.737350685834266	81.39423397586668	85.26264957717027	0	0	36.49511504801134	-36.49511504801134	4.737350685834266	81.39423397586668	85.26264957712195	0	0
31.63999999999941	0.0775109297428436	-1.792531245483415	-74.08592173544815	0	0.9399999999999999	0	-6.068918889483227	-2.932554055567066	0.5217282515956567	-3.246953220231555	-0.05667002435127319	0	0	0	1.004009459287323	-4.677803742590331	-7.940920231641097	9.059521493989708	0.1581184787253161	0	0	0	0	0	0	36.49584862710221	-36.49584862710221	4.737395944465145	81.39485618045835	85.26260431854156	0	0	36.49584862710221	-36.49584862710221	4.737395944465145	81.39485618045835	85.26260431849325	0	0
31.65999999999941	0.1149459762451335	-1.682698013298082	-74.51143696215334	0	0.9399999999999999	0	-5.472798629030481	-3.346952230731841	0.3864446425708672	-2.821879780028485	-0.04925109325695039	0	0	0	0.9248713127836508	-4.328061147010151	-7.794150129895979	8.347315028370081	0.1456881309462618	0	0	0	0	0	0	36.49800917385951	-36.49800917385951	4.737529947252568	81.39669845742389	85.26247031576051	0	0	36.49800917385951	-36.49800917385951	4.737529947252568	81.39669845742389	85.26247031571228	0	0
31.67999999999941	0.1688816594655158	-1.52247072757202	-74.95490122912973	0	0.9399999999999999	0	-5.068997951986292	-3.652673633543244	0.5400647140552352	-2.68093021809231	-0.04679105932192047	0	0	0	0.950131211974486	-3.961851662243629	-7.697430853981394	7.814554471140772	0.1363897050978507	0	0	0	0	0	0	36.50018344333596	-36.50018344333596	4.737664745942697	81.39855167123156	85.26233551707685	0	0	36.50018344333596	-36.50018344333596	4.737664745942697	81.39855167123156	85.26233551702863	0	0
31.69999999999941	0.1936647738244391	-1.303540438090115	-75.42480654943139	0	0.9399999999999999	0	-4.834454269530468	-3.825250859118927	0.9575306084780103	-2.791470278566805	-0.04872034733255404	0	0	0	1.068573089635285	-3.648367495698528	-7.700215594799618	7.453021271578714	0.130079760410223	0	0	0	0	0	0	36.50099281502062	-36.50099281502062	4.737714733692818	81.39923889188123	85.26228552932913	0	0	36.50099281502062	-36.50099281502062	4.737714733692818	81.39923889188123	85.2622855292809	0	0
